<svg xmlns="http://www.w3.org/2000/svg" viewBox="0 0 512 512"><path fill="#50b0e7" d="M271 39.2a55 55 0 0 1-35.2 3.3c-18.4-3.7-36.3-9.3-55.3-11.2A111.8 111.8 0 0 0 60.9 130c-2.4 23.5 1.1 46.2 3.5 69.2 1.7 18.6 11.2 46.5 17.5 66.1-10.4-10.7-20-28.5-25.4-37.6a195.8 195.8 0 0 1-30.2-102C26.2 65 75.3 10.1 134.6 1.5c31.7-4.8 59.4 2.2 86 17.7 14 8.2 30.4 17.5 50.3 20M272.9 293.7c-13 5-28 13-37.1 21.6-21.6 21.1-31 46.7-35 75.5a359 359 0 0 1-20.2 87.6 82.4 82.4 0 0 1-13.7 23.3c-12.7 14.4-28.2 13.7-40-2-4-5.3-7-11.6-9-17.5-.6-1.8-2.4-8.7-1.2-13.6 3 3.4 5.7 8 6.9 9.3 3.8 4.2 7.6 8.6 12.1 12.2 9 7 13 6.2 17.3-4.5 3.7-9.4 6.6-19.3 8.4-29.2 5-24.8 8.7-50 13.6-74.8 8-40.3 27-70 67.6-83.3a105 105 0 0 1 30.3-4.6"/><path fill="#656263" d="M405.9 53.5c-36.7-22.3-75.3-14.3-100-4.9-20 7.6-40 15.1-61.5 16.5-4.7.3-15.4-.9-21.3-2.5 28.3-4.6 59.5-28 85-43.2 38.4-23.1 79.5-19 121.7 1.9 23 11.4 45.2 43.3 52.3 66.4 5 16.2 4.5 34-.2 50.5a255.6 255.6 0 0 1-35.3 75 130 130 0 0 1-16.1 19.7c-6.2 5.9-16 14-25 17.4 5.7-9.5 10-16.8 13.7-23.5 3.4-6.4 6.6-13 9.4-19.8a247 247 0 0 0 15.9-67c2.9-28.6-.3-46.6-21-70.8a78.8 78.8 0 0 0-17.6-15.7M283.4 325.1c7.2 4.9 14.7 5.5 21 6.3 30.8 4 62.4 7 94.4 1.9 12.6-1.9 24.5-4.7 34.6-10.4 13.8-7.8 14.6-16.5 2-25.3-1-1-2.5-1.9-3.9-2.5-5.7-3.1-11.3-8.8-19.2-6-7 2.9-2.3 8.5-1.8 13 1.2 10.3-6.2 16.6-23.5 19.9-24.6 4.7-49.6 3.6-74.7 3.1h-29M297.3 369.3c6.1 4.2 12.2 4.7 17.3 5.3 25.5 3.6 51.7 6.3 78.2 1.7 10.4-1.7 20.2-4 28.5-9 11.5-6.8 12.2-14.4 1.8-22-1-.9-2.2-1.6-3.3-2.3-4.8-2.6-9.4-7.7-16-5-5.7 2.4-1.8 7.4-1.5 11.2 1.2 9-5 14.4-19.2 17.2-20.4 4.1-41.2 3.2-62 2.9-7-.2-14.2 0-23.8 0M308.2 407.7c5 3.5 10.2 4 14.5 4.6a222 222 0 0 0 65.4 1.4 73 73 0 0 0 24-7.5c9.4-5.7 10-12 1.3-18.4-.7-.6-1.7-1.3-2.7-1.7-4-2.2-7.8-6.5-13.3-4.3-4.8 2-1.5 6.2-1.3 9.3 1 7.4-4.2 12-16.2 14.3-17.1 3.4-34.4 2.7-51.7 2.3h-20M317.5 441.7c4.1 3.1 8.5 3.4 12.1 4 17.8 2.6 35.9 4.6 54.4 1.2a52 52 0 0 0 19.8-6.8c8-5 8.5-10.5 1.2-16.3a8.8 8.8 0 0 0-2.3-1.6c-3.3-2-6.5-5.8-11-3.8-4 1.8-1.3 5.5-1.1 8.4.8 6.6-3.5 10.6-13.4 12.7-14.3 3.1-28.7 2.3-43 2.2-5-.2-10 0-16.7 0M323.2 471.8c3.6 2.7 7.5 3 10.5 3.5 15.7 2.4 31.6 4 47.8 1.1a46 46 0 0 0 17.4-6c7-4.4 7.4-9.2 1.1-14.3-.6-.4-1.2-1-2-1.4-2.8-1.7-5.7-5-9.8-3.3-3.4 1.6-1 4.7-.9 7.2.6 5.9-3 9.5-11.8 11.4-12.4 2.6-25.1 2-37.7 1.8h-14.6M332 501.7c3 2.2 6 2.5 8.3 3 12.3 1.7 24.7 3.1 37.4.8 4.9-1 9.6-2.2 13.7-4.9 5.5-3.6 5.6-7.5.8-11.6-.5-.5-1-.8-1.6-1.1-2.2-1.4-4.4-4.1-7.5-2.9-2.9 1.3-1 4-.8 6 .5 4.7-2.4 7.7-9.3 9.3-9.7 2-19.6 1.6-29.5 1.4z"/></svg>