<svg xmlns="http://www.w3.org/2000/svg" viewBox="0 0 756 512"><path fill="#50b0e7" d="M499.9 0a256 256 0 1 1 0 512.1A256 256 0 0 1 500 0M211.1 58.9a47.4 47.4 0 0 1-30.3 2.8c-15.9-3.1-31.4-8-47.8-9.6a96.5 96.5 0 0 0-103.2 85.1c-2 20.4 1 39.9 3 59.8 1.5 16 9.7 40 15.1 57-9-9.2-17.2-24.6-21.8-32.4a169 169 0 0 1-26-88C-.2 81 42.2 33.8 93.3 26.3a110 110 0 0 1 74.3 15.3c12.1 7 26.2 15 43.4 17.3M212.8 278.5a108.3 108.3 0 0 0-32 18.7c-18.6 18.2-26.8 40.3-30.1 65.1a309.8 309.8 0 0 1-17.5 75.7c-3 7.3-6.7 14-11.8 20-11 12.5-24.4 11.9-34.6-1.7-3.4-4.5-6-10-7.7-15-.6-1.6-2.1-7.6-1.1-11.8 2.6 3 5 7 6 8 3.3 3.7 6.5 7.4 10.4 10.5 7.7 6.1 11.2 5.4 14.9-3.8 3.3-8.1 5.7-16.7 7.3-25.2 4.2-21.4 7.5-43.1 11.7-64.6 6.9-34.8 23.4-60.5 58.4-71.9 2-.7 16.7-4.7 26.1-4"/><path fill="#656263" d="M327.6 71.2C296 52 262.6 59 241.2 67c-17.2 6.5-34.4 13-53 14.2A72 72 0 0 1 170 79c24.4-3.9 51.3-24 73.2-37.2 33.2-20 68.7-16.5 105.1 1.6 19.9 9.9 39 37.4 45.2 57.4 4.3 14 3.9 29.3-.2 43.5-6.7 23-16.9 45.3-30.4 64.7-4.2 6-8.7 11.9-14 17a73.8 73.8 0 0 1-21.5 15.1c4.9-8.2 8.6-14.5 11.8-20.3 3-5.6 5.7-11.3 8.1-17 7.5-18.6 11.6-38 13.7-58 2.5-24.6-.2-40.1-18.1-61a68 68 0 0 0-15.2-13.6M221.8 305.7c6.3 4.2 12.8 4.7 18.2 5.4 26.6 3.4 53.8 6 81.5 1.6a87 87 0 0 0 29.8-9c12-6.7 12.7-14.2 1.8-21.8-1-.8-2.2-1.6-3.4-2.1-4.9-2.8-9.7-7.6-16.5-5.2-6.1 2.4-2 7.3-1.7 11.3 1.1 8.8-5.2 14.2-20.2 17-21.2 4.1-42.8 3.2-64.5 2.8-7.3-.2-15 0-25 0M233.9 343.8c5.3 3.6 10.5 4 15 4.6 22 3 44.5 5.4 67.4 1.5 9-1.5 17.5-3.6 24.6-8 10-5.7 10.5-12.2 1.5-18.9-.8-.7-1.8-1.3-2.8-1.9-4.1-2.3-8-6.6-13.8-4.3-5 2-1.5 6.3-1.3 9.6 1 7.7-4.4 12.5-16.6 15-17.6 3.4-35.5 2.6-53.4 2.4-6.1-.2-12.4 0-20.6 0M243.3 377c4.3 3 8.8 3.4 12.5 4 18.4 2.3 37.3 4.2 56.4 1.1a63 63 0 0 0 20.7-6.5c8.2-4.9 8.6-10.3 1.2-15.8-.6-.6-1.5-1.1-2.3-1.5-3.5-2-6.8-5.6-11.5-3.7-4.2 1.6-1.3 5.3-1.2 8 .9 6.4-3.6 10.3-14 12.3-14.7 3-29.6 2.3-44.6 2h-17.2M251.4 406.3c3.5 2.7 7.3 3 10.4 3.4 15.3 2.3 31 4 47 1 6.1-1 12-2.5 17-5.8 7-4.3 7.3-9 1-14-.5-.6-1.1-1-2-1.4-2.8-1.8-5.5-5-9.4-3.3-3.6 1.5-1.1 4.7-1 7.2.7 5.7-3 9.2-11.5 11-12.4 2.7-24.8 2-37.2 1.9-4.3-.2-8.7 0-14.3 0M256.2 432.3c3.2 2.3 6.5 2.6 9.1 3 13.6 2 27.3 3.5 41.2 1 5.5-1 10.8-2.4 15-5.2 6.2-3.8 6.5-8 1-12.4l-1.7-1.2c-2.5-1.5-4.9-4.3-8.4-2.8-3 1.3-1 4-.8 6.2.5 5-2.6 8.1-10.2 9.8-10.7 2.3-21.7 1.7-32.6 1.6h-12.6M263.8 458c2.6 2 5.2 2.2 7.2 2.6a99 99 0 0 0 32.3.7c4.2-.8 8.3-1.9 11.8-4.2 4.7-3.1 4.9-6.5.7-10-.4-.4-.8-.7-1.4-1-1.9-1.2-3.8-3.5-6.5-2.4-2.4 1-.8 3.4-.7 5.1.4 4.1-2 6.7-8 8-8.4 1.8-17 1.4-25.5 1.3z"/><path fill="#110f0d" d="M281.6 233.9v27.5h8.3c8.3 0 12.2-6 12.2-13.7 0-7.8-3.9-13.8-12.2-13.8zm-7.6 33.9v-40.3H290c12.5 0 19.8 7.7 19.8 20.2 0 12.4-7.3 20.1-19.8 20.1zM324.6 246.6h9.5c4.5 0 7.5-1.4 7.5-6.4s-3-6.3-7.5-6.3h-9.5zm-7.6 21.2v-40.3h17c8.5 0 15.2 3.4 15.2 12.7 0 6.3-3.3 10.1-9.3 11.7l9.4 15.9h-8.6l-8.7-14.9h-7.4v14.9zM359.6 259.7c2.3 0 4.2 2 4.2 4.2a4.2 4.2 0 1 1-4.2-4.2M386.3 227.5h7.6v40.3h-7.6zM402.6 227.5h10.5l11.8 28.5 11.7-28.5h10.5v40.3h-7.6v-28.5l-11.7 28.5h-5.9l-11.7-28.5v28.5h-7.6zM473.4 248.1c4.7 0 7.3-2.3 7.3-7 0-4.9-2.6-7.2-7.3-7.2H463V248zm-17.9-20.6h17.9c8.7 0 15 4.2 15 13.5s-6.3 13.5-15 13.5H463v13.3h-7.6zM503.8 261.5h19.7v6.3h-27.3v-40.3h7.6zM542.6 252h11.5l-5.7-14zm2.7-24.5h6.2l17 40.3h-8l-3.8-9.4H540l-3.8 9.4h-7.9zM584 227.5l18 29.8v-29.8h7.6v40.3H600l-18-29.7v29.7h-7.7v-40.3zM616.4 233.9v-6.4h35v6.4h-13.7v33.9H630v-34ZM686.7 227.5v6.4h-21V244h20v6.3h-20v11H687v6.4h-28.8v-40.3zM696.9 258.6c4 2.5 8.7 3.7 13.4 3.7 4 0 7.9-.7 7.9-5.5 0-4.4-5.6-5.7-9-6.4-6.8-1.6-14.8-4.3-14.8-12.7 0-8.3 8-11 15-11 5.3 0 10 .7 14.4 3.7l-3.7 5.3c-3.2-2-7-2.7-10.7-2.7-3.2 0-7.4.7-7.4 4.7 0 4.3 5.3 5.3 8.6 6 7 1.7 15.2 4.4 15.2 13 0 9.2-7.6 12-15.5 12a27 27 0 0 1-17.1-4.8z"/></svg>