<svg xmlns="http://www.w3.org/2000/svg" viewBox="0 0 1762 512"><path fill="#50b0e7" d="M499.7 0a256 256 0 1 1 .1 512.1A256 256 0 0 1 499.7 0M211 58.9a47.4 47.4 0 0 1-30.4 2.8c-15.9-3.1-31.3-8-47.7-9.6a96.5 96.5 0 0 0-103.2 85.1c-2 20.4 1 39.9 3 59.8 1.4 16 9.6 40 15 57-8.9-9.2-17.2-24.6-21.8-32.4a169 169 0 0 1-26-88C-.4 81 42 33.8 93.2 26.3a110 110 0 0 1 74.3 15.3c12 7 26.1 15 43.3 17.3M212.6 278.5a108.3 108.3 0 0 0-32 18.7c-18.6 18.2-26.7 40.3-30.1 65.1A309.8 309.8 0 0 1 133 438c-3 7.3-6.6 14-11.8 20-11 12.5-24.4 11.9-34.6-1.7-3.4-4.5-6-10-7.7-15-.5-1.6-2-7.6-1-11.8 2.5 3 4.8 7 5.9 8 3.3 3.7 6.5 7.4 10.4 10.5 7.8 6.1 11.3 5.4 15-3.8 3.2-8.1 5.6-16.7 7.3-25.2 4.2-21.4 7.4-43.1 11.6-64.6 7-34.8 23.4-60.5 58.4-71.9 2-.7 16.7-4.7 26.1-4"/><path fill="#656263" d="M327.4 71.2C295.7 52 262.4 59 241.1 67c-17.3 6.5-34.5 13-53 14.2a72 72 0 0 1-18.4-2.2c24.4-3.9 51.3-24 73.3-37.2 33.2-20 68.7-16.5 105 1.6 19.9 9.9 39.1 37.4 45.2 57.4 4.3 14 4 29.3-.1 43.5-6.7 23-17 45.3-30.5 64.7-4.2 6-8.6 11.9-14 17a73.8 73.8 0 0 1-21.5 15.1c4.9-8.2 8.7-14.5 11.8-20.3 3-5.6 5.7-11.3 8.1-17 7.5-18.6 11.7-38 13.8-58 2.5-24.6-.3-40.1-18.2-61a68 68 0 0 0-15.2-13.6M221.7 305.7c6.2 4.2 12.7 4.7 18.1 5.4 26.6 3.4 53.9 6 81.5 1.6a87 87 0 0 0 29.9-9c11.9-6.7 12.6-14.2 1.7-21.8-1-.8-2.1-1.6-3.4-2.1-4.8-2.8-9.7-7.6-16.5-5.2-6.1 2.4-2 7.3-1.6 11.3 1 8.8-5.3 14.2-20.2 17-21.3 4.1-42.9 3.2-64.6 2.8-7.3-.2-14.9 0-25 0M233.7 343.8c5.3 3.6 10.5 4 15 4.6 22 3 44.6 5.4 67.4 1.5 9-1.5 17.5-3.6 24.6-8 10-5.7 10.5-12.2 1.6-18.9l-2.9-1.9c-4-2.3-8-6.6-13.7-4.3-5 2-1.6 6.3-1.3 9.6 1 7.7-4.4 12.5-16.6 15-17.7 3.4-35.6 2.6-53.5 2.4-6-.2-12.3 0-20.6 0M243.1 377c4.4 3 8.8 3.4 12.5 4 18.4 2.3 37.4 4.2 56.5 1.1a63 63 0 0 0 20.6-6.5c8.2-4.9 8.6-10.3 1.2-15.8-.6-.6-1.5-1.1-2.3-1.5-3.5-2-6.8-5.6-11.5-3.7-4.2 1.6-1.3 5.3-1.2 8 1 6.4-3.5 10.3-13.9 12.3-14.8 3-29.7 2.3-44.6 2H243M251.2 406.3c3.5 2.7 7.3 3 10.4 3.4 15.3 2.3 31 4 47 1 6.2-1 12-2.5 17-5.8 7-4.3 7.3-9 1.1-14-.5-.6-1.2-1-2-1.4-2.9-1.8-5.6-5-9.5-3.3-3.5 1.5-1.1 4.7-1 7.2.7 5.7-3 9.2-11.5 11-12.3 2.7-24.8 2-37.1 1.9-4.4-.2-8.7 0-14.4 0M256 432.3c3.2 2.3 6.6 2.6 9.1 3 13.6 2 27.3 3.5 41.3 1 5.4-1 10.7-2.4 15-5.2 6.1-3.8 6.4-8 1-12.4l-1.8-1.2c-2.4-1.5-4.9-4.3-8.4-2.8-3 1.3-1 4-.8 6.2.5 5-2.6 8.1-10.2 9.8-10.7 2.3-21.7 1.7-32.5 1.6H256M263.7 458c2.5 2 5.1 2.2 7.2 2.6a99 99 0 0 0 32.2.7c4.2-.8 8.3-1.9 11.8-4.2 4.8-3.1 5-6.5.7-10-.4-.4-.8-.7-1.4-1-1.9-1.2-3.8-3.5-6.5-2.4-2.4 1-.8 3.4-.6 5.1.4 4.1-2 6.7-8 8-8.4 1.8-17 1.4-25.5 1.3z"/><path fill="#231f20" d="M545.5 188.4a58.1 58.1 0 0 1-9 16.6 48 48 0 0 1-37 16.2c-29.8 0-51.2-24-51.2-56.9 0-17.4 6.8-33.7 17.9-43a54 54 0 0 1 34.5-11.7 44.7 44.7 0 0 1 45 34l-21.1 8.7a41 41 0 0 0-6-12.6 23.5 23.5 0 0 0-19.2-9.5c-7.4 0-14.7 3.1-19.9 8.7-5.5 5.7-8.7 16-8.7 28 0 11 3 20 8.7 25.8 5.2 5.3 13 8.5 20.7 8.5 8.3 0 15.5-3.5 19.5-9.5 2-3 3.2-5.5 4.9-11.2zM566 218.1V112.6h22.2v85.3h46.9V218zM651.2 112.6h22.3V218h-22.3ZM776 218.1l-50.6-73.9v74h-22.1V112.5H731l49.6 75.2v-75.2h22.1V218zM832.6 112.6h22.3V218h-22.3zM974.4 188.4a58.1 58.1 0 0 1-9 16.6 48 48 0 0 1-37 16.2c-29.8 0-51.2-24-51.2-56.9 0-17.4 6.8-33.7 17.9-43a54 54 0 0 1 34.5-11.7 44.7 44.7 0 0 1 45 34l-21.1 8.7a41 41 0 0 0-6-12.6 23.5 23.5 0 0 0-19.2-9.5c-7.4 0-14.7 3.1-20 8.7-5.5 5.7-8.6 16-8.6 28 0 11 3 20 8.7 25.8 5.2 5.3 13 8.5 20.7 8.5 8.2 0 15.5-3.5 19.5-9.5 2-3 3.1-5.5 4.9-11.2zM1029.7 136l-13 45.1h28zm27.1 82.1-5.8-17.8h-40.2l-5.3 17.8h-24.2l35-105.5h27.7l37.2 105.5zM645.2 388c8.7 0 13.6-1.5 18.3-5.1 7-5.5 10.8-15 10.8-27.4 0-21.5-10.1-32.3-30-32.3h-14.1V388zm-36.3-85.5h33c15.5 0 23 1.6 31.6 6.5 15 8.7 23.6 26 23.6 47.5 0 19.9-7.6 36-20.6 44-8.2 5-18.8 7.6-31.6 7.6h-36zM760 347.6c7.2 0 10.8-1.1 13.9-4a12.4 12.4 0 0 0-3.6-19.8 26.9 26.9 0 0 0-11-1.5h-18v25.3zm18.4 60.5-23-40.9h-14.1v40.9H718V302.5h39.4c13.1 0 21.2 1.7 28.8 6.3 8.9 5.3 14 14.9 14 26.3 0 9.2-3.4 17.7-9.3 22.8-3.1 2.8-6 4.4-12.5 7l24.9 43.2zM834.1 398.6c0 5.7-4.7 10.4-10.6 10.4a10.5 10.5 0 1 1 10.6-10.4M888.6 302.5h22.3v105.6h-22.3zM1026.1 408v-75l-31.5 45.1-32.4-45v75h-21.5V302.5h26l27 37.7 26.7-37.7h27.7v105.6zM1116.8 351.9c5.5 0 9.2-.8 11.9-2.6 4-2.5 6.4-7.6 6.4-12.6s-2.3-9.8-6.1-12.4c-3.3-2.2-6.8-2.8-14.3-2.8h-15.3v30.4zm-39 56.2V302.5h37.6c12 0 20.9 2 27.7 6.3 8.4 5.4 13.3 15.7 13.3 27.7 0 13-5 22.8-14.3 28.5-7.1 4.4-12.8 5.7-26 5.7h-16.7v37.4zM1173.4 408V302.6h22.2v85.3h46.8v20.3zM1300 326l-13 45h28zm27.1 82-5.8-17.8H1281l-5.3 17.9h-24.2l35-105.6h27.7l37.2 105.6zM1441.5 408l-50.6-73.9v74h-22.2V302.5h27.9l49.5 75.2v-75.2h22.2v105.6zM1514 408v-84.3h-29.7v-21.2h82.6v21.2h-30.6v84.4zM1583 408V302.6h69.8v20.1h-48.6v23.1h43v19.2h-43v23.5h52.4v19.7zM1746.6 330.7c-8.2-6.7-16.9-10-26.4-10-9.6 0-16.3 4.9-16.3 11.9 0 3.3 1.6 5.8 4.8 7.4a39 39 0 0 0 13.6 3.2c13 2 21 4.4 26.7 7.9a27 27 0 0 1 13.2 23.9c0 21-18.2 35-45.5 35-18.8 0-30-4.8-46.2-19.5l17.3-14.1a41.6 41.6 0 0 0 30.4 13.1c11.5 0 19.1-4.9 19.1-12.5 0-6.8-4-9.5-18-12.1-16.3-3.2-19.7-4-24.2-5.9-9.9-4-15.6-13.1-15.6-24.7 0-19 18-33.9 41.4-33.9 15.8 0 31 5.9 41.3 15.7z"/></svg>