<svg xmlns="http://www.w3.org/2000/svg" viewBox="0 0 1271 512"><path fill="#fff" d="M0 512h1271V0H0Z"/><path fill="#50b0e7" d="M384.2 88.1a168 168 0 1 1 .1 336 168 168 0 0 1 0-336M194.8 126.7c-7.2 3.5-14.3 3-20 1.9-10.4-2-20.5-5.3-31.3-6.3A63.3 63.3 0 0 0 75.8 178c-1.3 13.4.6 26.2 2 39.3 1 10.5 6.3 26.3 9.9 37.4-6-6-11.4-16.1-14.4-21.3a110.9 110.9 0 0 1-17-57.8 73.3 73.3 0 0 1 61.2-70.3c18-2.7 33.7 1.2 48.8 10 8 4.6 17.2 9.9 28.5 11.3M195.9 270.9a71 71 0 0 0-21 12.2A70 70 0 0 0 155 326c-2.2 16.9-5 33.6-11.5 49.6-2 4.8-4.4 9.3-7.7 13.2-7.2 8.2-16 7.8-22.7-1.2-2.2-3-4-6.5-5.1-9.9-.4-1-1.4-4.9-.7-7.7 1.7 2 3.2 4.6 3.9 5.3 2.2 2.4 4.3 4.9 6.9 7 5 4 7.3 3.5 9.7-2.6 2.2-5.3 3.8-11 4.8-16.5 2.8-14.1 5-28.3 7.7-42.4 4.5-22.9 15.4-39.7 38.3-47.2 1.4-.4 11-3.1 17.2-2.6"/><path fill="#656263" d="M271.2 134.8c-20.8-12.6-42.6-8-56.7-2.7a121.5 121.5 0 0 1-34.8 9.3c-2.6.2-8.7-.5-12-1.4 16-2.6 33.7-15.8 48-24.5 21.9-13 45.1-10.8 69 1 13 6.6 25.7 24.6 29.7 37.7a50.3 50.3 0 0 1-.1 28.6c-4.4 15.1-11.1 29.7-20 42.5-2.8 4-5.7 7.8-9.2 11.1-3.5 3.4-9 8-14.1 10 3.2-5.5 5.7-9.6 7.7-13.4 2-3.7 3.8-7.4 5.4-11.2a140 140 0 0 0 9-38c1.6-16.2-.2-26.4-12-40-3.1-3.8-6.6-7-9.9-9M201.8 288.7c4 2.7 8.4 3.1 12 3.5 17.4 2.3 35.3 4 53.4 1.1 7.1-1 13.9-2.7 19.6-5.9 7.8-4.4 8.3-9.3 1.1-14.3l-2.2-1.4c-3.2-1.8-6.4-5-10.8-3.4-4 1.6-1.4 4.8-1.1 7.4.7 5.8-3.5 9.3-13.3 11.2-14 2.7-28 2-42.3 1.8h-16.4M209.7 313.7c3.5 2.4 7 2.7 9.8 3 14.5 2 29.3 3.6 44.3 1 5.9-1 11.5-2.3 16.1-5.2 6.5-3.8 7-8 1-12.4-.5-.5-1.2-1-1.8-1.3-2.7-1.5-5.3-4.3-9-2.8-3.3 1.3-1 4.2-.9 6.3.6 5-2.9 8.2-11 9.8-11.5 2.3-23.2 1.8-35 1.6h-13.5M215.9 335.5c2.8 2 5.7 2.2 8.2 2.6 12 1.6 24.5 2.8 37 .8 5-1 9.6-2 13.6-4.3 5.4-3.2 5.6-6.8.7-10.4a6 6 0 0 0-1.5-1c-2.2-1.2-4.4-3.6-7.5-2.4-2.7 1-.9 3.5-.8 5.3.6 4.1-2.3 6.7-9.1 8-9.7 2-19.5 1.6-29.3 1.4h-11.3M221.2 354.7c2.3 1.8 4.8 2 6.8 2.2 10 1.5 20.3 2.7 30.8.7 4.1-.7 8-1.6 11.2-3.8 4.6-2.8 4.8-6 .7-9.2a5 5 0 0 0-1.3-1c-1.9-1-3.7-3.2-6.2-2-2.3 1-.7 3-.7 4.7.5 3.7-2 6-7.5 7.2-8.1 1.7-16.3 1.3-24.4 1.2h-9.4M224.4 371.8c2 1.5 4.2 1.7 6 2a81 81 0 0 0 27 .6 26 26 0 0 0 9.9-3.4c4-2.5 4.1-5.3.6-8.1l-1.2-.8c-1.6-1-3.2-2.9-5.5-1.9-2 1-.6 2.7-.5 4.1.3 3.3-1.7 5.4-6.7 6.4-7 1.5-14.2 1.2-21.4 1h-8.2M229.4 388.7c1.6 1.2 3.3 1.4 4.7 1.7 7 1 14 1.8 21.2.4 2.7-.5 5.4-1.2 7.7-2.7 3.1-2 3.2-4.3.4-6.6-.2-.3-.5-.5-.9-.6-1.2-.8-2.4-2.3-4.2-1.6-1.6.7-.6 2.2-.5 3.3.3 2.7-1.3 4.4-5.2 5.3-5.5 1.2-11.1.9-16.7.8z"/><path fill="#231f20" d="M414.3 211.7a38.1 38.1 0 0 1-6 11 31.5 31.5 0 0 1-24.2 10.5c-19.5 0-33.6-15.7-33.6-37.3 0-11.4 4.5-22 11.8-28.2a35.5 35.5 0 0 1 22.6-7.7c14.6 0 25.1 8.1 29.5 22.3l-13.8 5.8a27 27 0 0 0-4-8.4 15.4 15.4 0 0 0-12.5-6.2c-4.9 0-9.7 2-13.1 5.7-3.6 3.8-5.7 10.5-5.7 18.4 0 7.3 2 13 5.7 17 3.4 3.5 8.5 5.5 13.6 5.5a15 15 0 0 0 12.8-6.2c1.3-2 2-3.6 3.2-7.4zM427.8 231.3V162h14.5v56h30.8v13.3zM483.7 162h14.6v69.3h-14.6zM565.6 231.3l-33.2-48.5v48.5h-14.6V162h18.3l32.5 49.3V162h14.6v69.3zM602.7 162h14.6v69.3h-14.6zM695.7 211.7a38.1 38.1 0 0 1-5.9 11 31.5 31.5 0 0 1-24.3 10.5c-19.5 0-33.5-15.7-33.5-37.3 0-11.4 4.4-22 11.7-28.2a35.5 35.5 0 0 1 22.7-7.7c14.5 0 25 8.1 29.5 22.3l-13.9 5.8a27 27 0 0 0-4-8.4 15.4 15.4 0 0 0-12.5-6.2c-4.9 0-9.6 2-13 5.7-3.7 3.8-5.8 10.5-5.8 18.4 0 7.3 2 13 5.7 17C656 218 661 220 666 220a15 15 0 0 0 12.8-6.2c1.4-2 2.1-3.6 3.2-7.4zM732.1 177.4l-8.5 29.6H742zm17.8 53.9-3.9-11.8h-26.4l-3.4 11.8h-15.9l23-69.3h18.1l24.4 69.3zM479.7 342.7c5.7 0 9-1 12-3.3 4.6-3.7 7.1-9.9 7.1-18 0-14.1-6.6-21.2-19.7-21.2H470v42.5zm-23.8-56h21.7c10.1 0 15 1 20.7 4.2 9.9 5.7 15.5 17 15.5 31.1 0 13.1-5 23.7-13.5 28.9-5.4 3.3-12.4 5-20.8 5H456zM555.1 316.2c4.7 0 7-.7 9-2.6a8.1 8.1 0 0 0-2.4-13c-1.5-.7-3.8-1-7-1h-12v16.6zm12 39.7-15-26.8h-9.3v26.8h-15.3v-69.3h25.9c8.6 0 13.9 1.2 18.9 4.2 5.8 3.4 9.2 9.7 9.2 17.2 0 6-2.3 11.6-6.1 15-2.1 1.8-4 2.9-8.2 4.5l16.3 28.4zM603.7 349.7a7 7 0 0 1-7 6.8 6.9 6.9 0 1 1 7-6.9M639.5 286.6H654V356h-14.6zM729.7 355.9v-49.2L709 336.3l-21.2-29.6v49.2h-14.2v-69.3h17.2l17.6 24.7 17.6-24.7H744V356zM789.2 319c3.7 0 6-.5 7.8-1.6a10 10 0 0 0 4.3-8.4c0-3.3-1.6-6.4-4-8-2.3-1.5-4.6-2-9.4-2h-10.1v20zM763.7 356v-69.3h24.6c7.9 0 13.7 1.4 18.2 4.2 5.5 3.5 8.7 10.2 8.7 18.1 0 8.6-3.2 15-9.4 18.7-4.6 3-8.4 3.8-17 3.8h-11v24.5zM826.4 355.9v-69.3h14.5v56h30.8v13.3zM909.5 302l-8.5 29.6h18.3zm17.7 53.9-3.8-11.8H897l-3.4 11.8h-15.9l23-69.3h18.1l24.4 69.3zM1002.3 355.9l-33.2-48.5v48.5h-14.5v-69.3h18.2l32.5 49.3v-49.3h14.6V356zM1049.9 355.9v-55.4h-19.5v-13.9h54.2v14h-20v55.3zM1095.2 355.9v-69.3h45.8v13.2h-32V315h28.3v12.5h-28.2V343h34.4V356zM1202.6 305.1a27 27 0 0 0-17.4-6.5c-6.3 0-10.7 3.2-10.7 7.7 0 2.2 1 3.9 3.1 5 1.9.9 3.2 1.2 9 2 8.5 1.4 13.8 3 17.5 5.2 5.5 3.2 8.6 9 8.6 15.7 0 13.8-12 23-29.8 23-12.3 0-19.7-3.2-30.3-12.8l11.3-9.3a27.3 27.3 0 0 0 20 8.6c7.5 0 12.5-3.2 12.5-8.2 0-4.4-2.6-6.2-11.8-8a78.4 78.4 0 0 1-15.9-3.8c-6.4-2.6-10.2-8.6-10.2-16.2 0-12.5 11.9-22.2 27.1-22.2 10.4 0 20.4 3.8 27.1 10.2z"/></svg>