<svg xmlns="http://www.w3.org/2000/svg" viewBox="0 0 512 512"><path d="M415.3,149.4c-14.2-24.4-38.9-36.1-65-38.6a8.4,8.4,0,0,0-7.1,3c-10.4,12.5-20.5,25.4-30.1,38.6s-21,29.8-30.6,45.4h.1c28.1-10.9,65.5-7.8,78,16a73.4,73.4,0,0,1,8.3,35.3c0,26.7-11.5,54.4-22.1,79.8L342.2,340c-8,19.6-11.5,49-14.6,75-2,16.2-4.5,37.5-7.8,46.3h0a1.8,1.8,0,0,1-1.6,1,1.5,1.5,0,0,1-1.4-1.1c-2.5-7.5-3.6-24.8-4.4-38.2-2.2-37.7-5.3-89.5-34.6-113.5h0a34.4,34.4,0,0,0-21.8-7.8,33.9,33.9,0,0,0-21.8,7.8,61.4,61.4,0,0,0-7.7,7.6c-21.9,25.8-24.8,70.7-26.9,104.8a4.9,4.9,0,0,1-.1,1.2c-.8,13.3-1.8,30.7-4.2,38.2h0a1.6,1.6,0,0,1-1.5,1.1,1.5,1.5,0,0,1-1.5-1c-3.4-8.7-5.9-30.1-7.9-46.4-3.1-26-6.6-55.4-14.6-75l-4.6-11.1c-15.4-36.9-32.9-78.7-13.8-115.1,8-15.2,26.2-22,45.7-22a88.3,88.3,0,0,1,30.5,5.4,83.9,83.9,0,0,0,38.5,4.3,685.9,685.9,0,0,1,63.3-90.8,125.2,125.2,0,0,0-43.6,11.9,66.3,66.3,0,0,1-16.6,5.6,8.3,8.3,0,0,0-6.8,6.8,8.1,8.1,0,0,0,4.2,8.5,6.3,6.3,0,0,0,2.3.8,6.9,6.9,0,0,1,6.1,6.3,6.2,6.2,0,0,1-6.2,6.2h-.6c-12.9-1.3-19-9.8-24.8-18.1a44.8,44.8,0,0,0-17.1-16.1C185.8,101,123,104.3,96.7,149.4c-34.4,59.1,0,145.1,34.2,205.8s22.2,164.5,70.8,156.3c35.4-6,16.4-171.6,54.3-171.6s18.9,165.6,54.4,171.6c48.5,8.2,36.6-95.6,70.8-156.3s68.5-146.7,34.1-205.8Z"/><path d="M189.1,436.8a316.2,316.2,0,0,1-.2-53.3,362.1,362.1,0,0,1,9.3-52.6,497.4,497.4,0,0,1,37.7-99.4A699.3,699.3,0,0,1,359.7,59.8a6.2,6.2,0,1,1,8.9,8.7,742.6,742.6,0,0,0-67.2,79.8,655.7,655.7,0,0,0-54.9,88.5,480.5,480.5,0,0,0-37.6,96.8,365.1,365.1,0,0,0-9.5,50.9c-1.8,17.2-2.7,34.6-3.2,52h0a3.5,3.5,0,0,1-3.4,3.5,3.7,3.7,0,0,1-3.7-3.2Z"/><path d="M362.7,43.7,396.9,4.8c5.6-6.4,16.6-5.9,21.8-1.4a15.5,15.5,0,0,1,1.4,21.8L385.8,64.1c-5.6,6.4-16.6,5.9-21.8,1.4A15.5,15.5,0,0,1,362.7,43.7Z"/></svg>