<svg xmlns="http://www.w3.org/2000/svg" viewBox="0 0 256 256"><path d="M185.1,74.3C172,51.7,140.8,50.8,120.2,60.9a33.5,33.5,0,0,1-8.1,2.7,4.5,4.5,0,0,0-3.4,3.6,4.3,4.3,0,0,0,2.4,4.3l.9.3a3.1,3.1,0,0,1-.3,6.2h-.3c-6.5-.7-9.5-4.9-12.4-9.1a23.6,23.6,0,0,0-8.6-8C70,50.3,38.6,51.7,25.5,74.3c-17.3,29.6,0,72.7,17.1,103.1s11.1,82.5,35.5,78.4c17.7-3,8.2-86,27.2-86s9.5,83,27.2,86c24.4,4.1,18.4-48,35.5-78.4s34.4-73.5,17.1-103.1ZM167.8,92.5l-5,2.7a11.3,11.3,0,0,0-4.6,4.6l-2.8,5.1a1.3,1.3,0,0,1-1.3.8,1.6,1.6,0,0,1-1.3-.8L150,99.8a11.7,11.7,0,0,0-4.5-4.6l-5.1-2.7h0a1.6,1.6,0,0,1-.8-1.3,1.3,1.3,0,0,1,.8-1.3l5.1-2.8h0a11.1,11.1,0,0,0,4.5-4.6l2.8-5.1a1.7,1.7,0,0,1,1.3-.7,1.4,1.4,0,0,1,1.3.7l2.8,5.1a10.8,10.8,0,0,0,4.6,4.6l5,2.8a1.3,1.3,0,0,1,.8,1.3,1.6,1.6,0,0,1-.8,1.3Z"/><path d="M187.4,1.1l-4,7.2a15.7,15.7,0,0,1-6.5,6.5l-7.2,4h0a2.1,2.1,0,0,0-1.1,1.8,2.1,2.1,0,0,0,1.1,1.9l7.2,3.9a16.3,16.3,0,0,1,6.5,6.5l4,7.3h0a2.1,2.1,0,0,0,1.8,1.1,2.1,2.1,0,0,0,1.9-1.1l4-7.3h0a16.3,16.3,0,0,1,6.5-6.5l7.2-3.9a2.1,2.1,0,0,0,1.1-1.9,2.1,2.1,0,0,0-1.1-1.8l-7.2-4a15.7,15.7,0,0,1-6.5-6.5l-4-7.2A2.1,2.1,0,0,0,189.2,0a2.1,2.1,0,0,0-1.8,1.1Z"/><path d="M221.9,65.1l-2.8,5.1h0a11.1,11.1,0,0,1-4.6,4.5l-5,2.8a1.5,1.5,0,0,0,0,2.6l5,2.8h0a10.2,10.2,0,0,1,4.6,4.6l2.8,5h0a1.3,1.3,0,0,0,1.3.8,1.6,1.6,0,0,0,1.3-.8l2.8-5a11.1,11.1,0,0,1,4.5-4.6l5.1-2.8a1.3,1.3,0,0,0,.8-1.3,1.6,1.6,0,0,0-.8-1.3l-5.1-2.8a10.8,10.8,0,0,1-4.5-4.5l-2.8-5.1h0a1.6,1.6,0,0,0-1.3-.8,1.3,1.3,0,0,0-1.3.8Z"/></svg>