<svg xmlns="http://www.w3.org/2000/svg" viewBox="0 0 512 512"><path d="M335,309.7a14.7,14.7,0,0,0-11.5-5.4H290.6L284.2,244a17.1,17.1,0,0,0-17-15.3H244.3a17.1,17.1,0,0,0-17,15.3l-6.5,60.3H188a14.9,14.9,0,0,0-11.5,5.4,15.1,15.1,0,0,0-3.3,12.4,35.8,35.8,0,0,0,4.8,12.6,7.5,7.5,0,0,0,7.3,9.6h.3c2.3,2.4,17.6,17.9,18.4,19.8h0a7.5,7.5,0,0,0,3.6,14.1h.8c1.4,5.8,2.7,12.3,3.9,19.1a7.5,7.5,0,0,0-5.8,8.1,7.7,7.7,0,0,0,7.5,6.8h.9c.2,1.4,2.3,14.2,3.2,19.2a7.4,7.4,0,0,0-5.1,8.3,7.5,7.5,0,0,0,7.3,6.4h.5c.7,3.7,3.7,16.9,4.3,20a7.6,7.6,0,0,0,1.3,15h2.2c4.4,16.4,11.1,30.9,27.1,30.9s22.8-14.5,27.2-30.9h2.2a7.6,7.6,0,0,0,1.2-15c.7-3.1,3.7-16.3,4.4-20h.5a7.7,7.7,0,0,0,7.3-6.4,7.4,7.4,0,0,0-5.1-8.3c.8-5,3-17.8,3.2-19.2h.9a7.7,7.7,0,0,0,7.5-6.8,7.5,7.5,0,0,0-5.8-8.1c1.2-6.8,2.5-13.3,3.8-19.1h.9a7.5,7.5,0,0,0,7.2-5.7,7.3,7.3,0,0,0-3.6-8.4c.8-1.9,16.1-17.4,18.4-19.8h.3a7.6,7.6,0,0,0,7.3-9.6,37.6,37.6,0,0,0,4.7-12.6,14.6,14.6,0,0,0-3.2-12.4ZM273.7,453.3l-2.1,9.7-.6,3H240.5l-.6-3-2.1-9.7c-.6-2.3-1.1-4.7-1.6-7.2h39.1c-.5,2.5-1,4.9-1.6,7.2Zm10.2-56.2H227.6c-1.2-7-2.4-13.3-3.7-18.9h63.7c-1.3,5.6-2.5,11.9-3.7,18.9ZM319,329.2H192.5a22.9,22.9,0,0,1-4.5-9.9H323.4a21.6,21.6,0,0,1-4.4,9.9Z"/><path d="M388.7,32.9C366.9-4.6,315.1-6.2,280.8,10.6a52.6,52.6,0,0,1-15.9,5,5,5,0,0,0-4.1,4.3,5.1,5.1,0,0,0,2.7,5.2,24.4,24.4,0,0,0,4.6,1.4,7.7,7.7,0,0,1,6,8.1,7.6,7.6,0,0,1-7.4,6.8h-1.5c-14.5-2.8-19.6-11.9-23.6-19.2a30.3,30.3,0,0,0-10.4-11.5C197.4-7.1,145.1-4.6,123.3,32.9s-11.2,84.7,6.9,127.9a15.3,15.3,0,0,0,14.2,9.5H367.6a15.3,15.3,0,0,0,14.2-9.5c18.1-43.2,28.1-91.6,6.9-127.9Z"/></svg>