<svg xmlns="http://www.w3.org/2000/svg" viewBox="0 0 512 512"><path d="M372.4,145.3c-26.5-45.5-89.4-47.5-131-27.1h0a61.7,61.7,0,0,1-16.3,5.6,8.6,8.6,0,0,0-6.8,7.2,8.3,8.3,0,0,0,4.8,8.6,7.5,7.5,0,0,0,1.8.7,6.5,6.5,0,0,1,5.7,6.3,6.4,6.4,0,0,1-6.3,6.2h-.6c-13-1.3-19.2-10-25.1-18.3a48.3,48.3,0,0,0-17.3-16.3c-41.1-21.4-104.5-18.4-131,27.1-34.8,59.8,0,146.7,34.5,208.1s22.5,166.4,71.6,158.1c35.8-6,16.6-173.5,54.9-173.5s19.2,167.5,55,173.5c49.1,8.3,37.1-96.7,71.6-158.1s69.3-148.3,34.5-208.1Zm-37.3,62.8a9.6,9.6,0,0,1-9.5,9.5h-4.3v4.3a9.5,9.5,0,0,1-9.5,9.5h-9.9a9.4,9.4,0,0,1-9.5-9.5v-4.3h-4.3a9.5,9.5,0,0,1-9.5-9.5v-9.9a9.5,9.5,0,0,1,9.5-9.5h4.3v-4.3a9.5,9.5,0,0,1,9.5-9.5h9.9a9.6,9.6,0,0,1,9.5,9.5v4.3h4.3a9.6,9.6,0,0,1,9.5,9.5Z"/><path d="M449.3,200H437.5a10.5,10.5,0,0,1-10.4-10.5v-5.9h-6a10.6,10.6,0,0,1-10.5-10.5V161.3a10.6,10.6,0,0,1,10.5-10.5h6v-5.9a10.5,10.5,0,0,1,10.4-10.5h11.8a10.6,10.6,0,0,1,10.5,10.5v5.9h5.9a10.5,10.5,0,0,1,10.5,10.5v11.8a10.6,10.6,0,0,1-10.5,10.5h-5.9v5.9A10.6,10.6,0,0,1,449.3,200Z"/><path d="M366,90.6H349.1a13.4,13.4,0,0,1-13.3-13.3V67H325.5a13.3,13.3,0,0,1-13.3-13.3V36.8a13.3,13.3,0,0,1,13.3-13.2h10.3V13.2A13.3,13.3,0,0,1,349.1,0H366a13.2,13.2,0,0,1,13.2,13.2V23.6h10.4a13.2,13.2,0,0,1,13.2,13.2V53.7A13.2,13.2,0,0,1,389.6,67H379.2V77.3A13.2,13.2,0,0,1,366,90.6Z"/></svg>