<svg xmlns="http://www.w3.org/2000/svg" viewBox="0 0 256 256"><path d="M249.3,52.2c-12.3-21.1-41.5-22-60.7-12.5a33.9,33.9,0,0,1-7.6,2.5,3.9,3.9,0,0,0-3.2,3.4,4,4,0,0,0,2.2,4l.9.3a3,3,0,0,1,2.6,2.9,2.9,2.9,0,0,1-2.9,2.9h-.3c-6-.6-8.9-4.6-11.6-8.5a20.8,20.8,0,0,0-8.1-7.5c-19-10-48.4-8.6-60.7,12.5-16.2,27.7,0,68.1,16,96.5s10.4,77.2,33.2,73.4c16.6-2.8,7.7-80.5,25.5-80.5s8.9,77.7,25.5,80.5c22.8,3.8,17.2-44.9,33.2-73.4s32.2-68.8,16-96.5Z"/><path d="M78.1,137.2c-6.1-10.6-20.7-11-30.4-6.3a15.5,15.5,0,0,1-3.8,1.3,1.9,1.9,0,0,0-1.5,1.7,1.8,1.8,0,0,0,1.1,2h.4a1.6,1.6,0,0,1,1.3,1.5,1.5,1.5,0,0,1-1.5,1.4h-.1c-3-.3-4.4-2.3-5.8-4.2a11.2,11.2,0,0,0-4-3.8c-9.6-5-24.3-4.3-30.5,6.3-8,13.9,0,34,8.1,48.3s5.2,38.6,16.6,36.7c8.3-1.4,3.8-40.3,12.7-40.3s4.5,38.9,12.8,40.3c11.4,1.9,8.6-22.5,16.6-36.7s16.1-34.4,8-48.3Z"/><path d="M117.1,111.8l-19.3,38h-.6A12.3,12.3,0,0,0,85,162a9.7,9.7,0,0,0,.4,2.9L69.6,176.5l-4.7,15.7,26.5-19.6a11.5,11.5,0,0,0,5.8,1.6A12.2,12.2,0,0,0,109.4,162a12.7,12.7,0,0,0-1.3-5.5L122.6,128Z"/></svg>