<svg xmlns="http://www.w3.org/2000/svg" viewBox="0 0 512 512"><path d="M460.8,281.6H443.7a17,17,0,0,1-17-17.1H358.4a17,17,0,0,1-17.1,17.1H307.2a17.1,17.1,0,0,1-17.1-17.1H221.9a17.1,17.1,0,0,1-17.1,17.1H170.7a17,17,0,0,1-17.1-17.1H85.3a17,17,0,0,1-17,17.1H51.2a17.1,17.1,0,0,1-17.1-17.1H0v51.2c0,9.5,26.7,17.1,59.7,17.1s59.8-7.6,59.8-17.1v17.1c0,9.4,30.5,17.1,68.2,17.1s68.3-7.7,68.3-17.1c0,9.4,30.6,17.1,68.3,17.1s68.2-7.7,68.2-17.1V315.7c0,9.5,26.8,17.1,59.8,17.1s59.7-7.6,59.7-17.1V264.5H477.9a17.1,17.1,0,0,1-17.1,17.1Z"/><path d="M452.3,179.2a59.7,59.7,0,0,0-59.8,59.7v-8.5a68.3,68.3,0,1,0-136.5,0,68.3,68.3,0,1,0-136.5,0v8.5A59.8,59.8,0,0,0,0,238.9v8.6H34.1a17.1,17.1,0,0,1,17.1-17.1H68.3a17,17,0,0,1,17,17.1h68.3a17,17,0,0,1,17.1-17.1h34.1a17.1,17.1,0,0,1,17.1,17.1h68.2a17.1,17.1,0,0,1,17.1-17.1h34.1a17,17,0,0,1,17.1,17.1h68.3a17,17,0,0,1,17-17.1h17.1a17.1,17.1,0,0,1,17.1,17.1H512v-8.6a59.7,59.7,0,0,0-59.7-59.7Z"/></svg>